# xmcd
#
# Track frame offsets: 
#        150
#        13502
#        37187
#        58242
#        80344
#        114166
#        131283
#        147093
#        180470
#        203449
#        215356
#        241771
#        253385
#        278764
#        299265
#
# Disc length: 4204 seconds
#
# Revision: 0
# Processed by: cddbd v1.5.2PL0 Copyright (c) Steve Scherf et al.
# Submitted via: ExactAudioCopyFreeDBPlugin 1.0
#
DISCID=d1106a0f
DTITLE=Smokin' Chillums - Recordings 1998-2001
DYEAR=2019
DGENRE=Blues
TTITLE0=Rock and Roll On My Radio
TTITLE1=Don't Hurt Me So Bad
TTITLE2=Big Time Blues
TTITLE3=Oh Louise
TTITLE4=Let's Get Stoned
TTITLE5=Baby Baby Baby
TTITLE6=See See Rider
TTITLE7=Devil's Deal
TTITLE8=Wang Dang Doodle
TTITLE9=Walked All Night Long
TTITLE10=Howlin' For My Darling (Live)
TTITLE11=Shavin' Sideburns (Live)
TTITLE12=Mellow Down Easy (Live)
TTITLE13=Sugar Candy Doll (Bonus Track)
TTITLE14=Crucified On You (Bonus Track)
EXTD=
EXTT0=
EXTT1=
EXTT2=
EXTT3=
EXTT4=
EXTT5=
EXTT6=
EXTT7=
EXTT8=
EXTT9=
EXTT10=
EXTT11=
EXTT12=
EXTT13=
EXTT14=
PLAYORDER=
